<?xml version="1.0" standalone="no"?>
<!DOCTYPE svg PUBLIC "-//W3C//DTD SVG 20010904//EN"
 "http://www.w3.org/TR/2001/REC-SVG-20010904/DTD/svg10.dtd">
<svg version="1.0" xmlns="http://www.w3.org/2000/svg"
 width="700.000000pt" height="700.000000pt" viewBox="0 0 700.000000 700.000000"
 preserveAspectRatio="xMidYMid meet">
<metadata>
Created by potrace 1.11, written by Peter Selinger 2001-2013
</metadata>
<g transform="translate(0.000000,700.000000) scale(0.100000,-0.100000)"
fill="#000000" stroke="none">
<path d="M232 6989 c-52 -15 -129 -67 -162 -109 -17 -22 -40 -64 -51 -95 -19
-54 -19 -111 -17 -3303 l3 -3247 24 -50 c32 -63 93 -124 156 -156 l50 -24
3265 0 3265 0 50 25 c62 30 122 91 155 156 l25 49 0 3265 0 3265 -25 50 c-31
64 -97 130 -158 158 l-47 22 -3250 2 c-2037 1 -3262 -2 -3283 -8z"/>
</g>
</svg>
